<svg data-v-053b30b7="" xmlns="http://www.w3.org/2000/svg" viewBox="0 0 993.1 1133.9" alt="Логотип" width="50" class=""><g data-v-053b30b7="" fill="#F59D0F"><path data-v-053b30b7="" d="M6.1 1130h56.6V973.6h100.4v-52.1H6.1zM276.3 917.6c-64.5 0-110.2 45.9-110.2 108.1 0 62.3 45.7 108.1 110.2 108.1s110.2-45.9 110.2-108.1c0-62.2-45.7-108.1-110.2-108.1zm0 162c-30.4 0-51.4-22-51.4-53.9s21-53.9 51.4-53.9 51.4 22 51.4 53.9-21 53.9-51.4 53.9zM388 973.6h59.3V1130h56.5V973.6h59.3v-52.1H388zM674.8 917.6c-64.5 0-110.2 45.9-110.2 108.1 0 62.3 45.7 108.1 110.2 108.1S785 1087.9 785 1025.7c0-62.2-45.7-108.1-110.2-108.1zm0 162c-30.4 0-51.4-22-51.4-53.9s21-53.9 51.4-53.9 51.4 22 51.4 53.9-21 53.9-51.4 53.9zM954.1 1025.3c16.2-8.2 27.7-23.7 27.7-43.9 0-36.9-24.9-59.9-80.9-59.9h-93.5V1130h98.9c55.1 0 79.7-22.9 79.7-59.9 0-20.4-13.7-38-31.9-44.8zM864 967.6h35.7c15.5 0 23.4 5.8 23.4 17.3 0 11.6-7.9 17.4-23.5 17.4H864v-34.7zm39.1 116.5l-39.1-.1v-35.7h39.2c16.2 0 24.6 6.1 24.6 17.9-.1 12-8.4 17.9-24.7 17.9z"></path></g><g data-v-053b30b7="" fill="#D9272E"><path data-v-053b30b7="" d="M474.8 252.2h-52c-10 11.9-20.7 23.2-32.2 34-64.9 61.2-147.8 99.7-237.8 111.6h144.9c47.4-21.9 90.3-51.1 127.2-87.2 18.4-18.2 35.1-37.7 49.9-58.4zM986 397.8V252.2H847.1c-18.2 50.2-41.9 99.1-70.8 145.6H986zM644.1 252.2c-25.5 53-59.2 102-100.1 145.6h52.2c38-45.2 68.7-94.2 92.1-145.6h-44.2zM616.2 584.7H986V439.2H748.8c-23.6 33.2-50 65-78.9 94.9-17.2 17.8-35.2 34.7-53.7 50.6zM500.8 439.2c-91.3 79.1-205.7 129.1-331.7 145.6h168.5c81.3-31.8 156.2-81 220.5-145.6h-57.3zM986 771.7V626.2H564c-117.3 85.2-254.1 135.4-398.3 145.6H986z"></path></g><g data-v-053b30b7="" fill="#FF9E16"><path data-v-053b30b7="" d="M516.3 3.2H370.1c-2.6 68-30.7 130.3-79.7 176.6-41.3 38.9-94.1 63.8-151.9 72.3h284.3c58.5-69.4 91.2-156 93.5-248.9zM543.9 397.8H297.7c-44.2 20.4-92.2 34.3-142.9 41.4h346c9-7.8 17.8-15.8 26.3-24.2 5.8-5.7 11.4-11.4 16.8-17.2zM702.6 3.2H556.5c-2.2 91.4-30.7 177.4-81.7 248.9h169.3C680.9 175.9 701 91.4 702.6 3.2zM596.1 397.8c-9.9 11.8-20.3 23.4-31.2 34.6-2.2 2.3-4.5 4.5-6.7 6.8h190.6c9.6-13.6 18.8-27.4 27.5-41.4H596.1zM889.8 14.4V3.2H743.9l-.3 11.5c-2.5 81.6-21 162.2-55.4 237.5h158.9c28-77.4 42.8-158 42.7-237.8zM151.3 626.2h412.6c17.9-13 35.3-26.8 52.2-41.4H337.6C278.4 608 215.7 622 151.3 626.2z"></path></g><g data-v-053b30b7="" fill="#FF4C00"><path data-v-053b30b7="" d="M169.1 584.7c126-16.4 240.4-66.4 331.7-145.6H6.1v145.6h163zM422.7 252.2H6.1v145.5h146.7c90-11.8 172.9-50.4 237.8-111.6 11.4-10.7 22.1-22.1 32.1-33.9zM644.1 252.2H474.8c-14.8 20.7-31.4 40.3-49.9 58.4-36.8 36.1-79.8 65.3-127.2 87.2H544c40.9-43.6 74.5-92.6 100.1-145.6zM151.3 626.2H6.1v145.6h159.6c144.2-10.1 281-60.4 398.3-145.6H151.3zM337.6 584.7h278.5c18.5-16 36.5-32.9 53.7-50.7 28.9-29.9 55.3-61.6 78.9-94.9H558.2c-64.3 64.7-139.3 113.8-220.6 145.6zM847.1 252.2H688.2c-23.4 51.4-54.1 100.4-92.1 145.6h180.2c28.9-46.5 52.7-95.4 70.8-145.6z"></path></g></svg>