<svg data-v-836a2b1c="" xmlns="http://www.w3.org/2000/svg" viewBox="0 0 1059.6 230.9" alt="Логотип" width="150" class=""><g data-v-836a2b1c="" fill="#F59D0F"><path data-v-836a2b1c="" d="M333.4 228.1h41.9V112.2h74.4V73.5H333.4zM533.6 70.6c-47.8 0-81.7 34-81.7 80.1 0 46.1 33.9 80.1 81.7 80.1s81.7-34 81.7-80.1c0-46.1-33.9-80.1-81.7-80.1zm0 120.1c-22.5 0-38.1-16.3-38.1-40 0-23.6 15.6-40 38.1-40s38.1 16.3 38.1 40-15.6 40-38.1 40zM616.4 112.2h43.9v115.9h42V112.2h43.9V73.5H616.4zM829 70.6c-47.8 0-81.7 34-81.7 80.1 0 46.1 33.9 80.1 81.7 80.1 47.8 0 81.7-34 81.7-80.1 0-46.1-33.9-80.1-81.7-80.1zm0 120.1c-22.5 0-38.1-16.3-38.1-40 0-23.6 15.6-40 38.1-40s38.1 16.3 38.1 40-15.6 40-38.1 40zM1036 150.5c12-6.1 20.5-17.6 20.5-32.6 0-27.4-18.4-44.4-59.9-44.4h-69.3V228h73.3c40.8 0 59.1-17 59.1-44.4-.1-15-10.3-28.1-23.7-33.1zm-66.8-42.8h26.5c11.5 0 17.3 4.3 17.3 12.8 0 8.6-5.9 12.9-17.4 12.9h-26.4v-25.7zm29 86.4l-29-.1v-26.5h29c12 0 18.2 4.5 18.2 13.2 0 8.9-6.2 13.4-18.2 13.4z"></path></g><g data-v-836a2b1c="" fill="#D9272E"><path data-v-836a2b1c="" d="M138.8 73.7h-15.4c-3 3.5-6.1 6.9-9.5 10.1-19.2 18.1-43.8 29.5-70.4 33h42.9c14-6.5 26.8-15.1 37.7-25.8 5.4-5.3 10.4-11.1 14.7-17.3zM290.3 116.9V73.7h-41.1c-5.4 14.9-12.4 29.4-21 43.1h62.1zM189 73.7c-7.6 15.7-17.5 30.2-29.7 43.1h15.5c11.2-13.4 20.3-27.9 27.3-43.1H189zM180.7 172.3h109.5v-43.1H220c-7 9.8-14.8 19.3-23.4 28.1-5.1 5.2-10.4 10.2-15.9 15zM146.5 129.1c-27 23.4-60.9 38.3-98.3 43.1h49.9c24.1-9.4 46.3-24 65.3-43.1h-16.9zM290.3 227.6v-43.1h-125c-34.7 25.2-75.3 40.1-118 43.1h243z"></path></g><g data-v-836a2b1c="" fill="#FF9E16"><path data-v-836a2b1c="" d="M151.1 0h-43.3c-.8 20.1-9.1 38.6-23.6 52.3-12.2 11.5-27.9 18.9-45 21.4h84.2c17.4-20.5 27.1-46.2 27.7-73.7zM159.3 116.9H86.4c-13.1 6-27.3 10.2-42.3 12.3h102.5c2.7-2.3 5.3-4.7 7.8-7.2 1.6-1.7 3.3-3.4 4.9-5.1zM206.3 0H163c-.6 27.1-9.1 52.5-24.2 73.7H189c10.9-22.6 16.9-47.6 17.3-73.7zM174.8 116.9c-2.9 3.5-6 6.9-9.3 10.3l-2 2H220c2.9-4 5.6-8.1 8.1-12.3h-53.3zM261.8 3.3V0h-43.2c0 1.1-.1 2.3-.1 3.4-.7 24.2-6.2 48-16.4 70.4h47.1c8.2-23 12.6-46.9 12.6-70.5zM43 184.5h122.2c5.3-3.8 10.5-7.9 15.5-12.3H98.2c-17.5 6.9-36.1 11.1-55.2 12.3z"></path></g><g data-v-836a2b1c="" fill="#FF4C00"><path data-v-836a2b1c="" d="M48.3 172.3c37.3-4.9 71.2-19.7 98.3-43.1H0v43.1h48.3zM123.4 73.7H0v43.2h43.5c26.7-3.5 51.2-14.9 70.4-33 3.4-3.3 6.6-6.6 9.5-10.2zM189 73.7h-50.2c-4.4 6.1-9.3 11.9-14.8 17.3-10.9 10.7-23.6 19.4-37.7 25.8h72.9c12.3-12.8 22.2-27.4 29.8-43.1zM43 184.5H0v43.1h47.2c42.7-3 83.2-17.9 118-43.1H43zM98.2 172.3h82.5c5.5-4.7 10.8-9.7 15.9-15 8.6-8.8 16.4-18.3 23.4-28.1h-56.5c-19 19.1-41.2 33.6-65.3 43.1zM249.1 73.7H202c-6.9 15.2-16 29.7-27.3 43.1h53.4c8.6-13.7 15.7-28.2 21-43.1z"></path></g></svg>